<?xml version="1.0" encoding="UTF-8" standalone="no"?>
<svg
   width="256"
   height="256"
   version="1.1"
   id="svg45"
   sodipodi:docname="icon.svg"
   inkscape:export-filename="icon_1024.png"
   inkscape:export-xdpi="384"
   inkscape:export-ydpi="384"
   inkscape:version="1.2.2 (732a01da63, 2022-12-09)"
   xmlns:inkscape="http://www.inkscape.org/namespaces/inkscape"
   xmlns:sodipodi="http://sodipodi.sourceforge.net/DTD/sodipodi-0.dtd"
   xmlns="http://www.w3.org/2000/svg"
   xmlns:svg="http://www.w3.org/2000/svg">
  <sodipodi:namedview
     id="namedview47"
     pagecolor="#ffffff"
     bordercolor="#000000"
     borderopacity="0.25"
     inkscape:showpageshadow="2"
     inkscape:pageopacity="0.0"
     inkscape:pagecheckerboard="0"
     inkscape:deskcolor="#d1d1d1"
     showgrid="false"
     inkscape:zoom="3.1953125"
     inkscape:cx="107.81418"
     inkscape:cy="128.46944"
     inkscape:window-width="1920"
     inkscape:window-height="1001"
     inkscape:window-x="-9"
     inkscape:window-y="-9"
     inkscape:window-maximized="1"
     inkscape:current-layer="svg_76" />
  <g
     id="g400">
    <title
       id="title365">Layer 1</title>
    <path
       stroke-width="0"
       fill="#007fff"
       d="m0,0l256,0l0,256l-256,0l0,-256z"
       id="path306"
       style="fill:#2196f3;fill-opacity:1" />
    <g
       filter="url(#svg_76_blur)"
       id="svg_76"
       stroke-width="0">
      <path
         fill="#1e5799"
         d="m59.69207,68.73995l89.32172,0l0,18.11213l-89.32172,0l0,-18.11213z"
         id="path303" />
      <path
         fill="#1e5799"
         d="m60.75991,47.06175l12,0l0,69.47245l-12,0l0,-69.47245z"
         id="path300"
         style="fill:#1974bb;fill-opacity:1" />
      <path
         fill="#1e5799"
         d="m136.75991,46.37098l12,0l0,69.47245l-12,0l0,-69.47245z"
         id="path297"
         style="fill:#1974bb;fill-opacity:1" />
      <path
         fill="#1e5799"
         d="m44.80512,33.61381l44.66086,0l0,17.86435l-44.66086,0l0,-17.86435z"
         id="path294"
         style="fill:#1974bb;fill-opacity:1" />
      <path
         fill="#1e5799"
         d="m119.23988,33.61381l44.66086,0l0,17.86435l-44.66086,0l0,-17.86435z"
         id="path291"
         style="fill:#1974bb;fill-opacity:1" />
      <path
         fill="#1e5799"
         d="m44.80512,105.07118l44.66086,0l0,17.86435l-44.66086,0l0,-17.86435z"
         id="path288"
         style="fill:#1974bb;fill-opacity:1" />
      <path
         fill="#1e5799"
         d="m119.23988,105.07119l44.66086,0l0,17.86435l-44.66086,0l0,-17.86435z"
         id="path285"
         style="fill:#1974bb;fill-opacity:1" />
      <path
         fill="#1e5799"
         d="m44.30512,140.33174l119.09563,0l0,17.86435l-119.09563,0l0,-17.86435z"
         id="path282"
         style="fill:#1974bb;fill-opacity:1" />
      <path
         fill="#1e5799"
         d="m62.04282,175.14871l89.42865,0l0,18.11213l-89.42865,0l0,-18.11213z"
         id="path279" />
      <path
         fill="#1e5799"
         d="m44.80512,211.78911l119.09563,0l0,17.86435l-119.09563,0l0,-17.86435z"
         id="path276"
         style="fill:#1974bb;fill-opacity:1" />
      <path
         fill="#1e5799"
         d="m60.75991,156.21115l12,0l0,59.54781l-12,0l0,-59.54781z"
         id="path273"
         style="fill:#1974bb;fill-opacity:1" />
      <g
         filter="url(#svg_10_blur)"
         fill="#0f2b4c"
         font-family="'Merriweather Sans'"
         font-size="29px"
         font-weight="bold"
         id="svg_72"
         transform="matrix(2.26516 0 0 1.81709 -239.885 -46.6487)"
         aria-label="X"
         style="fill:#1974bb;fill-opacity:1">
        <path
           fill="#1e5799"
           id="path270"
           d="m207.65579,99.53379l-6.28711,0l-4.54541,-6.93848l-4.63037,6.93848l-6.00391,0l7.47656,-10.62012l-7.3208,-10.46436l6.27295,0l4.38965,6.57032l4.51709,-6.57032l6.01807,0l-7.36328,10.25196l7.47656,10.83252z"
           style="fill:#1974bb;fill-opacity:1" />
      </g>
      <g
         filter="url(#svg_10_blur)"
         fill="#0f2b4c"
         font-family="'Merriweather Sans'"
         font-size="29px"
         font-weight="bold"
         id="svg_73"
         transform="matrix(2.26516 0 0 2.05587 -237.006 -48.8868)"
         aria-label="O">
        <path
           fill="#1e5799"
           id="path267"
           d="m206.46316,113.22148q0,5.04102 -2.88867,8.01465q-2.88867,2.95947 -7.98633,2.95947q-5.08349,0 -7.97217,-2.95947q-2.88867,-2.97363 -2.88867,-8.01465q0,-5.0835 2.88867,-8.02881q2.88868,-2.95947 7.97217,-2.95947q5.06934,0 7.97217,2.95947q2.90283,2.94531 2.90283,8.02881zm-7.20752,5.33838q0.79297,-0.96289 1.17529,-2.26563q0.38233,-1.31689 0.38233,-3.08691q0,-1.89746 -0.43897,-3.22851q-0.43896,-1.33106 -1.14697,-2.15235q-0.72217,-0.84961 -1.6709,-1.23193q-0.93457,-0.38233 -1.9541,-0.38233q-1.03369,0 -1.9541,0.36817q-0.90625,0.36816 -1.6709,1.21777q-0.70801,0.79297 -1.16113,2.19483q-0.43897,1.38769 -0.43897,3.22851q0,1.8833 0.42481,3.21436q0.43896,1.31689 1.14697,2.15234q0.70801,0.83545 1.65674,1.23193q0.94873,0.39649 1.99658,0.39649q1.04785,0 1.99658,-0.39649q0.94873,-0.41064 1.65674,-1.26025z"
           style="fill:#1974bb;fill-opacity:1" />
      </g>
      <path
         fill="#1e5799"
         d="m45.0627,68.73995l118.86086,0l0,18.11213l-118.86086,0l0,-18.11213z"
         id="path264"
         style="fill:#1974bb;fill-opacity:1" />
      <path
         fill="#1e5799"
         d="m45.0627,175.14871l118.86086,0l0,18.11213l-118.86086,0l0,-18.11213z"
         id="path261"
         style="fill:#1974bb;fill-opacity:1" />
    </g>
    <path
       stroke-width="0"
       fill="#fcfdff"
       d="m54.03813,63.12615l89.32172,0l0,18.11213l-89.32172,0l0,-18.11213z"
       id="path258" />
    <path
       stroke-width="0"
       fill="#fcfdff"
       d="m55.10597,41.44795l12,0l0,69.47245l-12,0l0,-69.47245z"
       id="path255" />
    <path
       stroke-width="0"
       fill="#fcfdff"
       d="m131.10597,40.75717l12,0l0,69.47245l-12,0l0,-69.47245z"
       id="path252" />
    <path
       stroke-width="0"
       fill="#fcfdff"
       d="m39.15118,28l44.66086,0l0,17.86435l-44.66086,0l0,-17.86435z"
       id="path249" />
    <path
       stroke-width="0"
       fill="#fcfdff"
       d="m113.58594,28l44.66086,0l0,17.86435l-44.66086,0l0,-17.86435z"
       id="path246" />
    <path
       stroke-width="0"
       fill="#fcfdff"
       d="m39.15118,99.45737l44.66086,0l0,17.86435l-44.66086,0l0,-17.86435z"
       id="path243" />
    <path
       stroke-width="0"
       fill="#fcfdff"
       d="m113.58594,99.45739l44.66086,0l0,17.86435l-44.66086,0l0,-17.86435z"
       id="path240" />
    <path
       stroke-width="0"
       fill="#fcfdff"
       d="m38.65118,134.71793l119.09563,0l0,17.86435l-119.09563,0l0,-17.86435z"
       id="path237" />
    <path
       stroke-width="0"
       fill="#fcfdff"
       d="m56.38888,169.53493l89.42865,0l0,18.11213l-89.42865,0l0,-18.11213z"
       id="path234" />
    <path
       stroke-width="0"
       fill="#fcfdff"
       d="m39.15118,206.17531l119.09563,0l0,17.86435l-119.09563,0l0,-17.86435z"
       id="path231" />
    <path
       stroke-width="0"
       fill="#fcfdff"
       d="m55.10597,150.59735l12,0l0,59.54781l-12,0l0,-59.54781z"
       id="path228" />
    <g
       filter="url(#svg_10_blur)"
       stroke-width="0"
       fill="#fcfdff"
       font-family="'Merriweather Sans'"
       font-size="29px"
       font-weight="bold"
       id="svg_24"
       transform="matrix(2.26516 0 0 1.81709 -245.539 -52.8613)"
       aria-label="X">
      <path
         id="path225"
         d="m207.65579,99.86333l-6.28711,0l-4.54541,-6.93848l-4.63037,6.93848l-6.00391,0l7.47656,-10.62012l-7.3208,-10.46436l6.27295,0l4.38965,6.57032l4.51709,-6.57032l6.01807,0l-7.36328,10.25196l7.47656,10.83252z" />
    </g>
    <g
       filter="url(#svg_10_blur)"
       stroke-width="0"
       fill="#fcfdff"
       font-family="'Merriweather Sans'"
       font-size="29px"
       font-weight="bold"
       id="svg_25"
       transform="matrix(2.26516 0 0 2.05587 -237.006 -48.8868)"
       aria-label="O">
      <path
         id="path222"
         d="m203.96711,110.49085q0,5.04102 -2.88867,8.01465q-2.88867,2.95947 -7.98633,2.95947q-5.08349,0 -7.97216,-2.95947q-2.88868,-2.97363 -2.88868,-8.01465q0,-5.08349 2.88868,-8.02881q2.88867,-2.95947 7.97216,-2.95947q5.06934,0 7.97217,2.95947q2.90283,2.94532 2.90283,8.02881zm-7.20752,5.33838q0.79297,-0.96289 1.1753,-2.26562q0.38232,-1.3169 0.38232,-3.08692q0,-1.89746 -0.43896,-3.22851q-0.43897,-1.33106 -1.14698,-2.15235q-0.72216,-0.84961 -1.67089,-1.23193q-0.93458,-0.38232 -1.95411,-0.38232q-1.03369,0 -1.9541,0.36816q-0.90625,0.36816 -1.6709,1.21777q-0.708,0.79297 -1.16113,2.19483q-0.43896,1.38769 -0.43896,3.22851q0,1.8833 0.4248,3.21436q0.43897,1.31689 1.14697,2.15234q0.70801,0.83545 1.65674,1.23194q0.94873,0.39648 1.99658,0.39648q1.04786,0 1.99659,-0.39648q0.94873,-0.41065 1.65673,-1.26026z" />
    </g>
    <path
       stroke-width="0"
       fill="#fcfdff"
       d="m39.40876,63.12615l118.86086,0l0,18.11213l-118.86086,0l0,-18.11213z"
       id="path219" />
    <path
       stroke-width="0"
       fill="#fcfdff"
       d="m39.40876,169.53493l118.86086,0l0,18.11213l-118.86086,0l0,-18.11213z"
       id="path216" />
  </g>
  <defs
     id="defs408">
    <filter
       height="1"
       width="1"
       y="0"
       x="0"
       id="svg_10_blur">
      <feGaussianBlur
         id="feGaussianBlur402"
         in="SourceGraphic"
         stdDeviation="0" />
    </filter>
    <filter
       id="svg_76_blur"
       x="-0.038634699"
       y="-0.036727264"
       width="1.0772694"
       height="1.0734545">
      <feGaussianBlur
         id="feGaussianBlur405"
         in="SourceGraphic"
         stdDeviation="3" />
    </filter>
  </defs>
</svg>
